<?xml version="1.0" encoding="UTF-8"?>
<svg width="960px" height="960px" viewBox="0 0 960 960" version="1.1" xmlns="http://www.w3.org/2000/svg" xmlns:xlink="http://www.w3.org/1999/xlink">
    <!-- Generator: Sketch 57.1 (83088) - https://sketch.com -->
    <title>drivers/ZMNHHD/assets/icon</title>
    <desc>Created with Sketch.</desc>
    <g id="drivers/ZMNHHD/assets/icon" stroke="none" stroke-width="1" fill="none" fill-rule="evenodd">
        <g id="Creation/Screwhole-flat" transform="translate(186.000000, 81.500000)" fill="#000000" fill-rule="nonzero">
            <path d="M96.9375,46.9583333 C96.9375,73.4217328 75.0176162,94.875 47.9804942,94.875 C20.9411539,94.875 -0.979166667,73.4221603 -0.979166667,46.9583333 C-0.979166667,20.4945064 20.9411539,-0.958333333 47.9804942,-0.958333333 C75.0176162,-0.958333333 96.9375,20.4949339 96.9375,46.9583333 Z M91.0625,46.9583333 C91.0625,23.6705853 71.7729578,4.79166667 47.9804942,4.79166667 C24.1857599,4.79166667 4.89583333,23.6702092 4.89583333,46.9583333 C4.89583333,70.2464575 24.1857599,89.125 47.9804942,89.125 C71.7729578,89.125 91.0625,70.2460813 91.0625,46.9583333 Z" id="Stroke-1"></path>
            <path d="M80.8127894,26.6998956 C81.5506266,27.8365952 81.3834133,29.3222442 80.4104595,30.2744969 L30.9326381,78.6995987 C29.9662338,79.6454411 28.4610037,79.814011 27.3012769,79.1062729 C24.874306,77.6251827 22.5780143,75.8329249 20.5274404,73.8259803 C18.4717806,71.8140578 16.638883,69.5654569 15.1310425,67.1941997 C14.4095491,66.0595663 14.5820382,64.5879619 15.5473178,63.6427142 L64.9986521,15.2176124 C65.9613436,14.2748991 67.459825,14.1033801 68.6187923,14.8032444 C71.0367765,16.2633899 73.312077,18.0454675 75.3857295,20.0751199 C77.4077744,22.0239494 79.2235658,24.2515646 80.8127894,26.6998956 Z M71.2475048,24.1565504 C70.0418791,22.9765763 68.7697862,21.9046421 67.4447814,20.9561522 L21.4144798,66.0312158 C22.3956443,67.3438514 23.4947059,68.5983844 24.6816928,69.7601163 C25.8662043,70.9194254 27.1478592,71.9944471 28.4918046,72.9567715 L74.5354195,27.8928081 C73.5235851,26.5423128 72.4267737,25.2932018 71.2475048,24.1565504 Z" id="Stroke-3"></path>
            <path d="M86.1666667,46.4791667 C86.1666667,67.3841361 68.8481248,84.3333333 47.4895833,84.3333333 C26.1275176,84.3333333 8.8125,67.3858555 8.8125,46.4791667 C8.8125,25.5724779 26.1275176,8.625 47.4895833,8.625 C68.8481248,8.625 86.1666667,25.5741973 86.1666667,46.4791667 Z M80.2916667,46.4791667 C80.2916667,28.7499003 65.603519,14.375 47.4895833,14.375 C29.3722576,14.375 14.6875,28.7480495 14.6875,46.4791667 C14.6875,64.2102839 29.3722576,78.5833333 47.4895833,78.5833333 C65.603519,78.5833333 80.2916667,64.2084331 80.2916667,46.4791667 Z" id="Stroke-5"></path>
        </g>
        <g id="Creation/Screwhole-flat" transform="translate(310.000000, 81.500000)" fill="#000000" fill-rule="nonzero">
            <path d="M96.9375,46.9583333 C96.9375,73.4217328 75.0176162,94.875 47.9804942,94.875 C20.9411539,94.875 -0.979166667,73.4221603 -0.979166667,46.9583333 C-0.979166667,20.4945064 20.9411539,-0.958333333 47.9804942,-0.958333333 C75.0176162,-0.958333333 96.9375,20.4949339 96.9375,46.9583333 Z M91.0625,46.9583333 C91.0625,23.6705853 71.7729578,4.79166667 47.9804942,4.79166667 C24.1857599,4.79166667 4.89583333,23.6702092 4.89583333,46.9583333 C4.89583333,70.2464575 24.1857599,89.125 47.9804942,89.125 C71.7729578,89.125 91.0625,70.2460813 91.0625,46.9583333 Z" id="Stroke-1"></path>
            <path d="M80.8127894,26.6998956 C81.5506266,27.8365952 81.3834133,29.3222442 80.4104595,30.2744969 L30.9326381,78.6995987 C29.9662338,79.6454411 28.4610037,79.814011 27.3012769,79.1062729 C24.874306,77.6251827 22.5780143,75.8329249 20.5274404,73.8259803 C18.4717806,71.8140578 16.638883,69.5654569 15.1310425,67.1941997 C14.4095491,66.0595663 14.5820382,64.5879619 15.5473178,63.6427142 L64.9986521,15.2176124 C65.9613436,14.2748991 67.459825,14.1033801 68.6187923,14.8032444 C71.0367765,16.2633899 73.312077,18.0454675 75.3857295,20.0751199 C77.4077744,22.0239494 79.2235658,24.2515646 80.8127894,26.6998956 Z M71.2475048,24.1565504 C70.0418791,22.9765763 68.7697862,21.9046421 67.4447814,20.9561522 L21.4144798,66.0312158 C22.3956443,67.3438514 23.4947059,68.5983844 24.6816928,69.7601163 C25.8662043,70.9194254 27.1478592,71.9944471 28.4918046,72.9567715 L74.5354195,27.8928081 C73.5235851,26.5423128 72.4267737,25.2932018 71.2475048,24.1565504 Z" id="Stroke-3"></path>
            <path d="M86.1666667,46.4791667 C86.1666667,67.3841361 68.8481248,84.3333333 47.4895833,84.3333333 C26.1275176,84.3333333 8.8125,67.3858555 8.8125,46.4791667 C8.8125,25.5724779 26.1275176,8.625 47.4895833,8.625 C68.8481248,8.625 86.1666667,25.5741973 86.1666667,46.4791667 Z M80.2916667,46.4791667 C80.2916667,28.7499003 65.603519,14.375 47.4895833,14.375 C29.3722576,14.375 14.6875,28.7480495 14.6875,46.4791667 C14.6875,64.2102839 29.3722576,78.5833333 47.4895833,78.5833333 C65.603519,78.5833333 80.2916667,64.2084331 80.2916667,46.4791667 Z" id="Stroke-5"></path>
        </g>
        <g id="Creation/Screwhole-flat" transform="translate(434.000000, 81.500000)" fill="#000000" fill-rule="nonzero">
            <path d="M96.9375,46.9583333 C96.9375,73.4217328 75.0176162,94.875 47.9804942,94.875 C20.9411539,94.875 -0.979166667,73.4221603 -0.979166667,46.9583333 C-0.979166667,20.4945064 20.9411539,-0.958333333 47.9804942,-0.958333333 C75.0176162,-0.958333333 96.9375,20.4949339 96.9375,46.9583333 Z M91.0625,46.9583333 C91.0625,23.6705853 71.7729578,4.79166667 47.9804942,4.79166667 C24.1857599,4.79166667 4.89583333,23.6702092 4.89583333,46.9583333 C4.89583333,70.2464575 24.1857599,89.125 47.9804942,89.125 C71.7729578,89.125 91.0625,70.2460813 91.0625,46.9583333 Z" id="Stroke-1"></path>
            <path d="M80.8127894,26.6998956 C81.5506266,27.8365952 81.3834133,29.3222442 80.4104595,30.2744969 L30.9326381,78.6995987 C29.9662338,79.6454411 28.4610037,79.814011 27.3012769,79.1062729 C24.874306,77.6251827 22.5780143,75.8329249 20.5274404,73.8259803 C18.4717806,71.8140578 16.638883,69.5654569 15.1310425,67.1941997 C14.4095491,66.0595663 14.5820382,64.5879619 15.5473178,63.6427142 L64.9986521,15.2176124 C65.9613436,14.2748991 67.459825,14.1033801 68.6187923,14.8032444 C71.0367765,16.2633899 73.312077,18.0454675 75.3857295,20.0751199 C77.4077744,22.0239494 79.2235658,24.2515646 80.8127894,26.6998956 Z M71.2475048,24.1565504 C70.0418791,22.9765763 68.7697862,21.9046421 67.4447814,20.9561522 L21.4144798,66.0312158 C22.3956443,67.3438514 23.4947059,68.5983844 24.6816928,69.7601163 C25.8662043,70.9194254 27.1478592,71.9944471 28.4918046,72.9567715 L74.5354195,27.8928081 C73.5235851,26.5423128 72.4267737,25.2932018 71.2475048,24.1565504 Z" id="Stroke-3"></path>
            <path d="M86.1666667,46.4791667 C86.1666667,67.3841361 68.8481248,84.3333333 47.4895833,84.3333333 C26.1275176,84.3333333 8.8125,67.3858555 8.8125,46.4791667 C8.8125,25.5724779 26.1275176,8.625 47.4895833,8.625 C68.8481248,8.625 86.1666667,25.5741973 86.1666667,46.4791667 Z M80.2916667,46.4791667 C80.2916667,28.7499003 65.603519,14.375 47.4895833,14.375 C29.3722576,14.375 14.6875,28.7480495 14.6875,46.4791667 C14.6875,64.2102839 29.3722576,78.5833333 47.4895833,78.5833333 C65.603519,78.5833333 80.2916667,64.2084331 80.2916667,46.4791667 Z" id="Stroke-5"></path>
        </g>
        <g id="Creation/Screwhole-flat" transform="translate(558.000000, 81.500000)" fill="#000000" fill-rule="nonzero">
            <path d="M96.9375,46.9583333 C96.9375,73.4217328 75.0176162,94.875 47.9804942,94.875 C20.9411539,94.875 -0.979166667,73.4221603 -0.979166667,46.9583333 C-0.979166667,20.4945064 20.9411539,-0.958333333 47.9804942,-0.958333333 C75.0176162,-0.958333333 96.9375,20.4949339 96.9375,46.9583333 Z M91.0625,46.9583333 C91.0625,23.6705853 71.7729578,4.79166667 47.9804942,4.79166667 C24.1857599,4.79166667 4.89583333,23.6702092 4.89583333,46.9583333 C4.89583333,70.2464575 24.1857599,89.125 47.9804942,89.125 C71.7729578,89.125 91.0625,70.2460813 91.0625,46.9583333 Z" id="Stroke-1"></path>
            <path d="M80.8127894,26.6998956 C81.5506266,27.8365952 81.3834133,29.3222442 80.4104595,30.2744969 L30.9326381,78.6995987 C29.9662338,79.6454411 28.4610037,79.814011 27.3012769,79.1062729 C24.874306,77.6251827 22.5780143,75.8329249 20.5274404,73.8259803 C18.4717806,71.8140578 16.638883,69.5654569 15.1310425,67.1941997 C14.4095491,66.0595663 14.5820382,64.5879619 15.5473178,63.6427142 L64.9986521,15.2176124 C65.9613436,14.2748991 67.459825,14.1033801 68.6187923,14.8032444 C71.0367765,16.2633899 73.312077,18.0454675 75.3857295,20.0751199 C77.4077744,22.0239494 79.2235658,24.2515646 80.8127894,26.6998956 Z M71.2475048,24.1565504 C70.0418791,22.9765763 68.7697862,21.9046421 67.4447814,20.9561522 L21.4144798,66.0312158 C22.3956443,67.3438514 23.4947059,68.5983844 24.6816928,69.7601163 C25.8662043,70.9194254 27.1478592,71.9944471 28.4918046,72.9567715 L74.5354195,27.8928081 C73.5235851,26.5423128 72.4267737,25.2932018 71.2475048,24.1565504 Z" id="Stroke-3"></path>
            <path d="M86.1666667,46.4791667 C86.1666667,67.3841361 68.8481248,84.3333333 47.4895833,84.3333333 C26.1275176,84.3333333 8.8125,67.3858555 8.8125,46.4791667 C8.8125,25.5724779 26.1275176,8.625 47.4895833,8.625 C68.8481248,8.625 86.1666667,25.5741973 86.1666667,46.4791667 Z M80.2916667,46.4791667 C80.2916667,28.7499003 65.603519,14.375 47.4895833,14.375 C29.3722576,14.375 14.6875,28.7480495 14.6875,46.4791667 C14.6875,64.2102839 29.3722576,78.5833333 47.4895833,78.5833333 C65.603519,78.5833333 80.2916667,64.2084331 80.2916667,46.4791667 Z" id="Stroke-5"></path>
        </g>
        <g id="Creation/Screwhole-flat" transform="translate(683.000000, 81.500000)" fill="#000000" fill-rule="nonzero">
            <path d="M94.875,46.9583333 C94.875,73.4217328 73.4214967,94.875 46.9596326,94.875 C20.4955974,94.875 -0.958333333,73.4221603 -0.958333333,46.9583333 C-0.958333333,20.4945064 20.4955974,-0.958333333 46.9596326,-0.958333333 C73.4214967,-0.958333333 94.875,20.4949339 94.875,46.9583333 Z M89.125,46.9583333 C89.125,23.6705853 70.2458736,4.79166667 46.9596326,4.79166667 C23.6711693,4.79166667 4.79166667,23.6702092 4.79166667,46.9583333 C4.79166667,70.2464575 23.6711693,89.125 46.9596326,89.125 C70.2458736,89.125 89.125,70.2460813 89.125,46.9583333 Z" id="Stroke-1"></path>
            <path d="M79.0933683,26.6998956 C79.8155069,27.8365952 79.6518513,29.3222442 78.6995987,30.2744969 L30.2744969,78.6995987 C29.3286544,79.6454411 27.8554505,79.814011 26.7203987,79.1062729 C24.3450655,77.6251827 22.097631,75.8329249 20.0906864,73.8259803 C18.0787639,71.8140578 16.2848642,69.5654569 14.8091054,67.1941997 C14.1029629,66.0595663 14.2717821,64.5879619 15.2165238,63.6427142 L63.6157021,15.2176124 C64.5579107,14.2748991 66.0245096,14.1033801 67.158818,14.8032444 C69.5253557,16.2633899 71.7522456,18.0454675 73.7817778,20.0751199 C75.7608005,22.0239494 77.537958,24.2515646 79.0933683,26.6998956 Z M69.7316004,24.1565504 C68.5516263,22.9765763 67.3065993,21.9046421 66.009786,20.9561522 L20.9588525,66.0312158 C21.9191412,67.3438514 22.9948185,68.5983844 24.1565504,69.7601163 C25.3158595,70.9194254 26.5702452,71.9944471 27.885596,72.9567715 L72.9495595,27.8928081 C71.9592535,26.5423128 70.8857785,25.2932018 69.7316004,24.1565504 Z" id="Stroke-3"></path>
            <path d="M84.3333333,46.4791667 C84.3333333,67.3841361 67.3832711,84.3333333 46.4791667,84.3333333 C25.571613,84.3333333 8.625,67.3858555 8.625,46.4791667 C8.625,25.5724779 25.571613,8.625 46.4791667,8.625 C67.3832711,8.625 84.3333333,25.5741973 84.3333333,46.4791667 Z M78.5833333,46.4791667 C78.5833333,28.7499003 64.2076995,14.375 46.4791667,14.375 C28.747316,14.375 14.375,28.7480495 14.375,46.4791667 C14.375,64.2102839 28.747316,78.5833333 46.4791667,78.5833333 C64.2076995,78.5833333 78.5833333,64.2084331 78.5833333,46.4791667 Z" id="Stroke-5"></path>
        </g>
        <rect id="Rectangle" stroke="#000000" stroke-width="7.5" stroke-linejoin="round" x="144.25" y="19.25" width="673.5" height="217.5"></rect>
        <path d="M823.5,28.4993409 L838,28.5 C853.187831,28.5 865.5,40.8121694 865.5,56 L865.5,883.991424 L807.022779,942.5 L152.98218,942.5 L94.5,883.985384 L94.5,56 C94.5,40.8121694 106.812169,28.5 121.999688,28.5 L138.5,28.4993125 L138.5,15.5 L823.5,15.5 L823.5,28.4993409 Z" id="Combined-Shape" stroke="#000000" stroke-width="15" stroke-linecap="square" stroke-linejoin="round"></path>
        <rect id="Rectangle" fill="#000000" x="88" y="266.5" width="32" height="188"></rect>
        <rect id="Rectangle" fill="#000000" x="840" y="266.5" width="32" height="188"></rect>
    </g>
</svg>