<?xml version="1.0" encoding="utf-8"?>
<!-- Generator: Adobe Illustrator 21.0.0, SVG Export Plug-In . SVG Version: 6.00 Build 0)  -->
<svg version="1.1" id="Layer_1" xmlns="http://www.w3.org/2000/svg" xmlns:xlink="http://www.w3.org/1999/xlink" x="0px" y="0px"
	 viewBox="0 0 1153.7 1417.3" style="enable-background:new 0 0 1153.7 1417.3;" xml:space="preserve">
<g>
	<path d="M343.3,520c-35.8,0-64.8,29-64.8,64.8c0,35.8,29,64.8,64.8,64.8c35.8,0,64.8-29,64.8-64.8C408.1,549,379.1,520,343.3,520z"
		/>
	<path d="M572.6,129.8c-121.7,0-236.1,47.3-321.9,133.1c-23.2,23.2-43.1,47.9-61.1,75.7v-0.7l-8.6,14.5c-0.5,0.8-0.9,1.6-1.6,2.3
		l-1.2,2.7c-0.4,0.6-0.7,1.6-1.1,1.8l-1.4,2.8l-1.8,2.3l-1.1,2.6c-0.2,0.4-0.5,0.9-0.8,1.4c-0.4,0.6-0.7,1.2-1,1.7l-2.2,4.2
		l-0.2,0.2l-0.5,0.8h-0.5l-0.4,1c-0.4,1.2-0.9,2.1-1.2,2.9l-1,1.9c-0.4,1.2-0.9,2.1-1.2,2.9l-1.4,2.3L159,394l-0.9,1.3l-0.2,0.4
		c-0.4,1.2-0.9,2.6-1.2,3.1l-0.9,1.3l-0.1,0.4c-0.2,0.6-0.5,1.2-0.6,1.7c-0.2,0.6-0.5,1.2-0.7,1.8l-0.9,2.2l-1.4,2.8l-2.3,5.4
		l-0.5,1.3l-0.1,0.6c-0.1,0.3-0.2,0.5-0.2,0.7c-0.4,0.7-0.7,1.6-1.2,2.4l-0.6,1.7c-0.2,0.6-0.5,1.2-0.6,1.7
		c-0.2,0.6-0.5,1.2-0.7,1.8l-0.5,1.3l-0.1,0.7c-0.3,0.5-0.4,1-0.6,1.4c-0.2,0.5-0.4,1-0.6,1.6l-2.8,7c-0.2,0.7-0.4,1.3-0.5,2.1
		c-0.1,0.5-0.1,0.9-0.2,1.2l-0.5,0.5l-2.3,7.7c-0.2,0.6-0.5,1.2-0.6,1.7c-0.1,0.4-0.2,0.7-0.4,1.2l-1.8,5.9l-0.4,1.4
		c-0.2,0.6-1,2.2-1.1,4l-0.4,1.2c-0.5,1.3-1,2.8-1,4.2l-0.4,1.2c-6.8,25-11.2,49.7-13.5,75.9v0.4c-0.9,13.2-1.3,26.4-1.3,39.3
		c0,18.7,0.7,32.4,2.3,45.6v4.2l0.5,0.5c0,1.2,0.1,2.4,0.5,3.6v1.6l0.1,0.9c0.4,1.1,0.4,2.3,0.4,3.6l0.5,1.6v0.2
		c0,0.7,0.1,1.5,0.2,2.3c0.1,0.6,0.2,1.2,0.2,1.8l0.5,1.9l0.5,2.9v1.3l0.1,0.9c0.2,0.6,0.2,1.2,0.4,1.8c0.1,0.7,0.3,1.3,0.5,2.1v1.3
		c8,45.7,22.8,90.2,44.4,131.8l0.4,0.8h0.4c0.1,0.4,0.4,0.9,0.6,1.2c0.4,0.6,0.6,1.2,0.8,1.8l1,1.9c0.2,0.4,0.5,0.7,0.7,1.2
		c0.4,0.5,0.7,1.1,1.1,1.9l0.9,1.9l2.4,3.9l0.3,0.2c0.2,0.7,0.6,1.2,0.8,1.7c0.4,0.5,0.6,1,0.7,1.5l0.9,1.3v0.6l0.4,0.4
		c0.7,0.7,1.1,1.5,1.6,2.4l8.4,14.4v-0.7c17.9,27.8,37.9,52.5,61.1,75.7c86.2,86.2,200.5,133.6,321.9,133.6s235.7-47.4,321.9-133.6
		c85.8-85.8,133.1-200.2,133.1-321.9c0-121.7-47.3-236.1-133.1-321.9C808.5,177.1,694.3,129.8,572.6,129.8z M180.1,373.3v164.5
		h-50.6C135.4,480.1,152.4,424.8,180.1,373.3z M179.9,796.5c-26.8-49.5-43.7-102.6-50.1-157.9h50.1V796.5z M995.3,726.1
		c-8.4,25-18.8,48.8-30.8,70.5v-158h50.6C1011.4,668.9,1004.8,698.3,995.3,726.1z M964.5,373.3c12.8,23.8,23.4,48.5,31.6,73.5
		c9.8,29.9,16.4,60.5,19.4,91.1h-51.1V373.3z M1016.8,547.1c0.7,11.2,1.7,25,1.7,37.8c0,13.7-0.6,27.3-2.2,44.2h-60.9v184.7
		c-18.8,31-41.5,60.1-67.5,86.6c-84.6,84.2-196.6,130.6-315.4,130.6c-119.2,0-231.3-46.3-315.4-130.5c-25.6-26-48.3-55.3-67.5-87
		V629h-60.9c-0.7-8.4-1.3-16.1-1.6-23.3c-0.4-7.2-0.6-14-0.6-20.9c0-12.8,1-26.5,1.7-37.9h61.3V356.5c19.4-32.1,42.2-61.2,67.5-86.5
		c84-84.5,196-131,315.4-131c118.9,0,230.9,46.5,315.4,131c26,25.9,48.8,55.1,67.5,86.5v190.6H1016.8z"/>
	<path d="M572.5,81.7c-134.1,0-260.6,52.4-356.2,147.5C121.2,324.3,68.8,450.5,68.8,584.8c0,134.6,52.4,261.1,147.5,356.2
		c95.6,95.1,222.1,147.4,356.2,147.4c134.1,0,260.6-52.4,356.2-147.5c95.1-95.1,147.5-221.6,147.5-356.2
		c0-134.3-52.4-260.7-147.5-355.7C833.2,134,706.7,81.7,572.5,81.7z M913.1,925.5c-90.8,90.7-211.7,140.8-340.5,140.8
		c-128.8,0-249.7-50-340.5-140.8c-91-91.3-141-212.2-141-340.6c0-128.3,50-249.2,140.8-340.5c91.3-90.8,212.2-140.9,340.5-140.9
		c128.3,0,249.2,50,340.6,140.9c90.8,91.2,140.8,212.2,140.8,340.6C1053.8,713.3,1003.8,834.1,913.1,925.5z"/>
	<path d="M799.7,535.8c-35.8,0-64.8,29-64.8,64.8c0,35.8,29,64.8,64.8,64.8c35.8,0,64.8-29,64.8-64.8
		C864.5,564.9,835.5,535.8,799.7,535.8z"/>
	<path d="M1020.8,14.2h-888C69.2,14.2,17.4,66,17.4,129.7v1158c0,63.7,51.8,115.5,115.5,115.5h888c63.7,0,115.5-51.8,115.5-115.5
		v-1158C1136.3,66,1084.5,14.2,1020.8,14.2z M1111.7,1287.7c0,50.1-40.8,90.8-90.8,90.8h-888c-50.1,0-90.8-40.8-90.8-90.8v-1158
		c0-50.1,40.8-90.8,90.8-90.8h888c50.1,0,90.8,40.8,90.8,90.8V1287.7z"/>
</g>
</svg>
