<?xml version="1.0" encoding="utf-8"?>
<!-- Generator: Adobe Illustrator 21.0.0, SVG Export Plug-In . SVG Version: 6.00 Build 0)  -->
<svg version="1.1" id="Layer_1" xmlns="http://www.w3.org/2000/svg" xmlns:xlink="http://www.w3.org/1999/xlink" x="0px" y="0px"
	 viewBox="0 0 553.4 106.4" style="enable-background:new 0 0 553.4 106.4;" xml:space="preserve">
<g>
	<path d="M188.1,72.4c0,5-4,9.2-8.9,9.2h-50c-4.9,0-8.9-4.2-8.9-9.2V20.4h-12v52.1c0,11.9,9.4,21.4,20.9,21.4h50
		c11.5,0,20.9-9.6,20.9-21.4V20.4h-12V72.4z"/>
	<rect x="323" y="20.1" width="11" height="73.8"/>
	<path d="M424.2,20.4h-50c-11.5,0-20.9,9.6-20.9,21.4v52.1h12V41.8c0-5,4-9.2,8.9-9.2h50c4.9,0,8.9,4.2,8.9,9.2v52.1h12V41.8
		C445.2,29.9,435.7,20.4,424.2,20.4z"/>
	<path d="M530.8,20.4h-50c-11.5,0-20.9,9.6-20.9,21.4v30.6c0,11.9,9.4,21.4,20.9,21.4h50c11.5,0,20.9-9.6,20.9-21.4V41.8
		C551.8,29.9,542.3,20.4,530.8,20.4z M539.8,72.4c0,5-4,9.2-8.9,9.2h-50c-4.9,0-8.9-4.2-8.9-9.2V41.8c0-5,4-9.2,8.9-9.2h50
		c4.9,0,8.9,4.2,8.9,9.2V72.4z"/>
	<path d="M285.8,20.4h-50h-2.6v0.2c-2.3,0.3-4.4,0.9-6.4,1.9V2h-12v39.8v30.6v0.5c0,11.5,9.4,21,20.9,21h50c11.5,0,20.9-9.4,20.9-21
		v-0.5V41.8v-0.5C306.7,29.8,297.3,20.4,285.8,20.4z M294.7,72.4c0,5-4,9.2-8.9,9.2h-50c-4.9,0-8.9-4.2-8.9-9.2V41.8
		c0-5,4-9.2,8.9-9.2h50c4.9,0,8.9,4.2,8.9,9.2V72.4z"/>
	<polygon points="55.7,70.4 53.8,70.4 46.6,70.4 44.7,70.4 44.7,72.3 44.7,72.3 44.7,102.5 44.7,102.5 44.7,104.4 46.6,104.4 
		53.8,104.4 55.7,104.4 55.7,102.5 55.7,102.5 55.7,72.3 55.7,72.3 	"/>
	<path d="M72.6,20.4h-50c-11.5,0-20.9,9.6-20.9,21.4v30.6c0,11.9,9.4,21.4,20.9,21.4h11.1V81.6H22.6c-4.9,0-8.9-4.2-8.9-9.2V41.8
		c0-5,4-9.2,8.9-9.2h50c4.9,0,8.9,4.2,8.9,9.2v30.6c0,5-4,9.2-8.9,9.2h-5.9v12.3h5.9c11.5,0,20.9-9.6,20.9-21.4V41.8
		C93.6,29.9,84.1,20.4,72.6,20.4z"/>
</g>
</svg>
