<?xml version="1.0" encoding="utf-8"?>
<!-- Generator: Adobe Illustrator 21.0.0, SVG Export Plug-In . SVG Version: 6.00 Build 0)  -->
<svg version="1.1" id="Layer_1" xmlns="http://www.w3.org/2000/svg" xmlns:xlink="http://www.w3.org/1999/xlink" x="0px" y="0px"
     viewBox="0 0 757.3 1417.3" style="enable-background:new 0 0 757.3 1417.3;" xml:space="preserve">
<path d="M679,586.7c-7.4-12.3-20.4-19.7-34.8-19.7L426.4,567l50.9-438.2c0.7-6-1.2-12.1-5.3-16.6c-4-4.5-9.8-7.1-15.9-7.1h-0.9
	c-7.9,0-15,4.3-18.7,11.2L75.9,790.3c-6.8,12.7-6.4,27.6,1,40c7.4,12.3,20.4,19.7,34.8,19.7l217.8,0.1l-50.9,438.2
	c-0.7,6,1.2,12.1,5.2,16.6c4,4.5,9.8,7.1,15.9,7.1h0.9c7.9,0,15-4.3,18.7-11.2l360.6-674C686.7,614,686.4,599.1,679,586.7z"/>
</svg>