<?xml version="1.0" encoding="utf-8"?>
<!-- Generator: Adobe Illustrator 21.0.0, SVG Export Plug-In . SVG Version: 6.00 Build 0)  -->
<svg version="1.1" id="Layer_1" xmlns="http://www.w3.org/2000/svg" xmlns:xlink="http://www.w3.org/1999/xlink" x="0px" y="0px"
     viewBox="0 0 1417.3 1364.5" style="enable-background:new 0 0 1417.3 1364.5;" xml:space="preserve">
<path d="M827.2,1078.4c-2.8-4.6-7.7-7.4-13.1-7.4l-87.1,0l20.3-174.4c0.2-2.2-0.6-4.3-2.1-5.9c-3.3-3.7-10.2-2.9-12.6,1.5
	L589.8,1159c-2.6,4.8-2.4,10.4,0.4,15c2.8,4.6,7.7,7.4,13.1,7.4l87.1,0l-20.3,174.4c-0.2,2.2,0.6,4.3,2.1,5.9
	c1.4,1.6,3.7,2.5,5.9,2.5c2.8,0,5.4-1.5,6.7-4l142.8-266.9C830.1,1088.7,829.9,1083,827.2,1078.4z"/>
  <g>
	<path d="M1202.7,705c-2.9-114.6-43.6-219.3-110.3-302.1l77.6-84.1c5.9-6.4,5.9-16.3-0.1-22.6c-6-6.3-15.8-7-22.6-1.5l-87.8,71.3
		c-89.3-90.9-213.3-147.7-351.3-149.8C438.3,220.3,221.5,435.1,214.7,705c-3.5,139.3,51.7,274.9,151.5,372.2
		c6.5,6.3,14.8,9.4,23.2,9.4c8.7,0,17.3-3.4,23.8-10c12.8-13.2,12.5-34.2-0.6-47c-86.6-84.4-134.5-202-131.5-322.9
		c5.9-234.2,194-420.5,427-424.1c117,1.8,222.4,49.2,299.4,125.4L765.3,604.5c-12.6-4.8-26.3-7.4-40.6-7.4
		c-63.4,0-114.9,51.5-114.9,114.9c0,63.3,51.5,114.9,114.9,114.9S839.6,775.3,839.6,712c0-10.6-1.5-20.9-4.2-30.7l211.3-228.9
		c54.1,70.6,87.1,158.4,89.5,254.3c3.1,120.8-44.8,238.5-131.5,322.9c-13.1,12.8-13.4,33.9-0.6,47c12.8,13.1,33.9,13.4,47,0.6
		C1151,979.9,1206.2,844.3,1202.7,705z"/>
    <path d="M708.2,0C316.6,5.3-1.1,328.1,0,719.7c0.6,226.6,104.8,434.9,285.9,571.5c14.6,11,35.5,8.1,46.5-6.5s8.1-35.5-6.5-46.6
		c-164.4-124-258.9-313-259.5-518.6c-1-355.3,287.3-648.3,641.7-653.1c355.3,4.8,643.6,297.7,642.6,653.1
		c-0.6,205.6-95.1,394.6-259.5,518.6c-14.7,11.1-17.6,31.9-6.5,46.6c6.5,8.7,16.5,13.2,26.6,13.2c7,0,14-2.2,20-6.7
		c181.1-136.6,285.3-344.9,285.9-571.5C1418.4,328.1,1100.7,5.3,708.2,0z"/>
</g>
</svg>