<?xml version="1.0" encoding="utf-8"?>
<!-- Generator: Adobe Illustrator 21.0.0, SVG Export Plug-In . SVG Version: 6.00 Build 0)  -->
<svg version="1.1" id="Layer_1" xmlns="http://www.w3.org/2000/svg" xmlns:xlink="http://www.w3.org/1999/xlink" x="0px" y="0px"
	 viewBox="0 0 1417.3 921.3" style="enable-background:new 0 0 1417.3 921.3;" xml:space="preserve">
<g>
	<path d="M1407.8,175.7v-75.1c0-49.2-40.1-89.3-89.3-89.3H100.1c-49.2,0-89.3,40.1-89.3,89.3v75.1h29.1v37.2H10.8v96.9h29.1v37.2
		H10.8v96.9h29.1V481H10.8v96.9h29.1v37.2H10.8V712h29.1v37.2H10.8v73.6c0,49.2,40.1,89.3,89.3,89.3h1218.4
		c49.2,0,89.3-40.1,89.3-89.3v-73.6h-29.1V712h29.1v-96.9h-29.1v-37.2h29.1V481h-29.1v-37.2h29.1v-96.9h-29.1v-37.2h29.1v-96.9
		h-29.1v-37.2H1407.8z M1374.8,228.5h17.3v65.6h-17.3c-6.5,0-11.8,5.3-11.8,11.8v44.9c0,6.5,5.3,11.8,11.8,11.8h17.3v65.6h-17.3
		c-6.5,0-11.8,5.3-11.8,11.8v44.9c0,6.5,5.3,11.8,11.8,11.8h17.3v65.6h-17.3c-6.5,0-11.8,5.3-11.8,11.8v44.9
		c0,6.5,5.3,11.8,11.8,11.8h17.3v65.6h-17.3c-6.5,0-11.8,5.3-11.8,11.8V753c0,6.5,5.3,11.8,11.8,11.8h17.3v57.9
		c0,40.6-33,73.7-73.7,73.7H100.1c-40.6,0-73.7-33-73.7-73.7v-57.9h17.3c6.5,0,11.8-5.3,11.8-11.8v-44.9c0-6.5-5.3-11.8-11.8-11.8
		H26.4v-65.6h17.3c6.5,0,11.8-5.3,11.8-11.8v-44.9c0-6.5-5.3-11.8-11.8-11.8H26.4v-65.6h17.3c6.5,0,11.8-5.3,11.8-11.8V440
		c0-6.5-5.3-11.8-11.8-11.8H26.4v-65.6h17.3c6.5,0,11.8-5.3,11.8-11.8v-44.9c0-6.5-5.3-11.8-11.8-11.8H26.4v-65.6h17.3
		c6.5,0,11.8-5.3,11.8-11.8v-44.9c0-6.5-5.3-11.8-11.8-11.8H26.4v-59.5c0-40.6,33-73.7,73.7-73.7h1218.4c40.6,0,73.7,33,73.7,73.7
		V160h-17.3c-6.5,0-11.8,5.3-11.8,11.8v44.9C1363,223.2,1368.3,228.5,1374.8,228.5z"/>
	<path d="M325.3,636.6h768c86.4,0,156.7-70.3,156.7-156.7V136.5c0-7.6-6.1-13.7-13.7-13.7c-7.6,0-13.7,6.1-13.7,13.7v343.4
		c0,71.3-58,129.3-129.3,129.3h-768c-71.3,0-129.3-58-129.3-129.3V279.5c0-71.3,58-129.3,129.3-129.3H945c7.6,0,13.7-6.1,13.7-13.7
		c0-7.6-6.1-13.7-13.7-13.7H325.3c-86.4,0-156.7,70.3-156.7,156.7v200.4C168.6,566.3,238.9,636.6,325.3,636.6z"/>
	<path d="M1085,305.8c38.8,0,70.5-31.6,70.5-70.5c0-22.2-10.6-43.2-28.4-56.5v-57.1h-7.8V183l1.7,1.2c16.7,11.7,26.7,30.9,26.7,51.3
		c0,34.5-28.1,62.6-62.6,62.6c-34.5,0-62.6-28.1-62.6-62.6c0-20.4,10-39.5,26.7-51.3l1.7-1.2v-61.1h-7.8v57.1
		c-17.8,13.3-28.4,34.2-28.4,56.5C1014.5,274.2,1046.2,305.8,1085,305.8z"/>
	<path d="M534.6,764.7c-22.7,0-41.3,18.5-41.3,41.3s18.5,41.3,41.3,41.3c22.7,0,41.3-18.5,41.3-41.3S557.3,764.7,534.6,764.7z
		 M534.6,839.3c-18.4,0-33.4-15-33.4-33.4c0-18.4,15-33.4,33.4-33.4c18.4,0,33.4,15,33.4,33.4C568,824.3,553,839.3,534.6,839.3z"/>
	<path d="M534.6,774.9c-17.1,0-31,13.9-31,31c0,17.1,13.9,31,31,31s31-13.9,31-31C565.6,788.8,551.7,774.9,534.6,774.9z M534.6,833
		c-14.9,0-27.1-12.1-27.1-27.1c0-14.9,12.1-27.1,27.1-27.1c14.9,0,27.1,12.1,27.1,27.1C561.6,820.8,549.5,833,534.6,833z"/>
	<path d="M416.6,764.7c-22.7,0-41.3,18.5-41.3,41.3s18.5,41.3,41.3,41.3c22.7,0,41.3-18.5,41.3-41.3S439.4,764.7,416.6,764.7z
		 M416.6,839.3c-18.4,0-33.4-15-33.4-33.4c0-18.4,15-33.4,33.4-33.4s33.4,15,33.4,33.4C450,824.3,435,839.3,416.6,839.3z"/>
	<path d="M416.6,774.9c-17.1,0-31,13.9-31,31c0,17.1,13.9,31,31,31s31-13.9,31-31C447.6,788.8,433.7,774.9,416.6,774.9z M416.6,833
		c-14.9,0-27.1-12.1-27.1-27.1c0-14.9,12.1-27.1,27.1-27.1c14.9,0,27.1,12.1,27.1,27.1C443.7,820.8,431.5,833,416.6,833z"/>
	<path d="M180.7,764.7c-22.7,0-41.3,18.5-41.3,41.3s18.5,41.3,41.3,41.3c22.7,0,41.3-18.5,41.3-41.3S203.4,764.7,180.7,764.7z
		 M180.7,839.3c-18.4,0-33.4-15-33.4-33.4c0-18.4,15-33.4,33.4-33.4c18.4,0,33.4,15,33.4,33.4C214.1,824.3,199.1,839.3,180.7,839.3z
		"/>
	<path d="M180.7,774.9c-17.1,0-31,13.9-31,31c0,17.1,13.9,31,31,31c17.1,0,31-13.9,31-31C211.7,788.8,197.8,774.9,180.7,774.9z
		 M180.7,833c-14.9,0-27.1-12.1-27.1-27.1c0-14.9,12.1-27.1,27.1-27.1c14.9,0,27.1,12.1,27.1,27.1C207.7,820.8,195.6,833,180.7,833z
		"/>
	<path d="M298.6,764.7c-22.7,0-41.3,18.5-41.3,41.3s18.5,41.3,41.3,41.3c22.7,0,41.3-18.5,41.3-41.3S321.4,764.7,298.6,764.7z
		 M298.6,839.3c-18.4,0-33.4-15-33.4-33.4c0-18.4,15-33.4,33.4-33.4c18.4,0,33.4,15,33.4,33.4C332.1,824.3,317.1,839.3,298.6,839.3z
		"/>
	<path d="M298.6,774.9c-17.1,0-31,13.9-31,31c0,17.1,13.9,31,31,31s31-13.9,31-31C329.6,788.8,315.7,774.9,298.6,774.9z M298.6,833
		c-14.9,0-27.1-12.1-27.1-27.1c0-14.9,12.1-27.1,27.1-27.1c14.9,0,27.1,12.1,27.1,27.1C325.7,820.8,313.6,833,298.6,833z"/>
	<path d="M1006.5,764.7c-22.7,0-41.3,18.5-41.3,41.3s18.5,41.3,41.3,41.3c22.7,0,41.3-18.5,41.3-41.3S1029.2,764.7,1006.5,764.7z
		 M1006.5,839.3c-18.4,0-33.4-15-33.4-33.4c0-18.4,15-33.4,33.4-33.4c18.4,0,33.4,15,33.4,33.4
		C1039.9,824.3,1024.9,839.3,1006.5,839.3z"/>
	<path d="M1006.5,774.9c-17.1,0-31,13.9-31,31c0,17.1,13.9,31,31,31c17.1,0,31-13.9,31-31C1037.4,788.8,1023.6,774.9,1006.5,774.9z
		 M1006.5,833c-14.9,0-27.1-12.1-27.1-27.1c0-14.9,12.1-27.1,27.1-27.1c14.9,0,27.1,12.1,27.1,27.1
		C1033.5,820.8,1021.4,833,1006.5,833z"/>
	<path d="M888.5,764.7c-22.7,0-41.3,18.5-41.3,41.3s18.5,41.3,41.3,41.3s41.3-18.5,41.3-41.3S911.2,764.7,888.5,764.7z M888.5,839.3
		c-18.4,0-33.4-15-33.4-33.4c0-18.4,15-33.4,33.4-33.4c18.4,0,33.4,15,33.4,33.4C921.9,824.3,906.9,839.3,888.5,839.3z"/>
	<path d="M888.5,774.9c-17.1,0-31,13.9-31,31c0,17.1,13.9,31,31,31c17.1,0,31-13.9,31-31C919.5,788.8,905.6,774.9,888.5,774.9z
		 M888.5,833c-14.9,0-27.1-12.1-27.1-27.1c0-14.9,12.1-27.1,27.1-27.1c14.9,0,27.1,12.1,27.1,27.1C915.6,820.8,903.4,833,888.5,833z
		"/>
	<path d="M770.5,764.7c-22.7,0-41.3,18.5-41.3,41.3s18.5,41.3,41.3,41.3c22.7,0,41.3-18.5,41.3-41.3S793.3,764.7,770.5,764.7z
		 M770.5,839.3c-18.4,0-33.4-15-33.4-33.4c0-18.4,15-33.4,33.4-33.4c18.4,0,33.4,15,33.4,33.4C804,824.3,789,839.3,770.5,839.3z"/>
	<path d="M770.5,774.9c-17.1,0-31,13.9-31,31c0,17.1,13.9,31,31,31c17.1,0,31-13.9,31-31C801.5,788.8,787.6,774.9,770.5,774.9z
		 M770.5,833c-14.9,0-27.1-12.1-27.1-27.1c0-14.9,12.1-27.1,27.1-27.1c14.9,0,27.1,12.1,27.1,27.1C797.6,820.8,785.5,833,770.5,833z
		"/>
	<path d="M652.6,764.7c-22.7,0-41.3,18.5-41.3,41.3s18.5,41.3,41.3,41.3c22.7,0,41.3-18.5,41.3-41.3S675.3,764.7,652.6,764.7z
		 M652.6,839.3c-18.4,0-33.4-15-33.4-33.4c0-18.4,15-33.4,33.4-33.4c18.4,0,33.4,15,33.4,33.4C686,824.3,671,839.3,652.6,839.3z"/>
	<path d="M652.6,774.9c-17.1,0-31,13.9-31,31c0,17.1,13.9,31,31,31c17.1,0,31-13.9,31-31C683.5,788.8,669.6,774.9,652.6,774.9z
		 M652.6,833c-14.9,0-27.1-12.1-27.1-27.1c0-14.9,12.1-27.1,27.1-27.1c14.9,0,27.1,12.1,27.1,27.1C679.6,820.8,667.5,833,652.6,833z
		"/>
	<path d="M1124.4,764.7c-22.7,0-41.3,18.5-41.3,41.3s18.5,41.3,41.3,41.3s41.3-18.5,41.3-41.3S1147.2,764.7,1124.4,764.7z
		 M1124.4,839.3c-18.4,0-33.4-15-33.4-33.4c0-18.4,15-33.4,33.4-33.4c18.4,0,33.4,15,33.4,33.4
		C1157.9,824.3,1142.9,839.3,1124.4,839.3z"/>
	<path d="M1124.4,774.9c-17.1,0-31,13.9-31,31c0,17.1,13.9,31,31,31c17.1,0,31-13.9,31-31C1155.4,788.8,1141.5,774.9,1124.4,774.9z
		 M1124.4,833c-14.9,0-27.1-12.1-27.1-27.1c0-14.9,12.1-27.1,27.1-27.1c14.9,0,27.1,12.1,27.1,27.1
		C1151.5,820.8,1139.4,833,1124.4,833z"/>
	<path d="M1242.4,764.7c-22.7,0-41.3,18.5-41.3,41.3s18.5,41.3,41.3,41.3c22.7,0,41.3-18.5,41.3-41.3S1265.2,764.7,1242.4,764.7z
		 M1242.4,839.3c-18.4,0-33.4-15-33.4-33.4c0-18.4,15-33.4,33.4-33.4c18.4,0,33.4,15,33.4,33.4
		C1275.8,824.3,1260.8,839.3,1242.4,839.3z"/>
	<path d="M1242.4,774.9c-17.1,0-31,13.9-31,31c0,17.1,13.9,31,31,31c17.1,0,31-13.9,31-31C1273.4,788.8,1259.5,774.9,1242.4,774.9z
		 M1242.4,833c-14.9,0-27.1-12.1-27.1-27.1c0-14.9,12.1-27.1,27.1-27.1c14.9,0,27.1,12.1,27.1,27.1
		C1269.5,820.8,1257.3,833,1242.4,833z"/>
	<path d="M1085,255c10.8,0,19.6-8.8,19.6-19.6s-8.8-19.6-19.6-19.6c-10.8,0-19.6,8.8-19.6,19.6S1074.2,255,1085,255z M1085,219.7
		c8.6,0,15.7,7,15.7,15.7c0,8.6-7,15.7-15.7,15.7c-8.6,0-15.7-7-15.7-15.7C1069.3,226.8,1076.4,219.7,1085,219.7z"/>
</g>
</svg>
