<?xml version="1.0" encoding="utf-8"?>
<!-- Generator: Adobe Illustrator 21.0.0, SVG Export Plug-In . SVG Version: 6.00 Build 0)  -->
<svg version="1.1" id="Layer_1" xmlns="http://www.w3.org/2000/svg" xmlns:xlink="http://www.w3.org/1999/xlink" x="0px" y="0px"
	 viewBox="0 0 1113.3 1417.3" style="enable-background:new 0 0 1113.3 1417.3;" xml:space="preserve">
<style type="text/css">
	.st0{clip-path:url(#SVGID_2_);}
	.st1{clip-path:url(#SVGID_4_);}
</style>
<g>
	<g>
		<path d="M1095.4,258.5l-97-143.4l-54.6-80.8l-5.5-8.2l-9.8-0.2l-2.6-0.1L468,10.5L454.3,10l-4.8,12.8l-28.1,75.5L258.1,94
			l-13.4-0.4l-4.8,12.5L16.6,688.8l-3.6,9.4l5.8,8.3L134,871.4l-97.4,262l-3.5,9.3l5.6,8.1l161.6,233.3l5.4,7.8l9.5,0.4l209.6,7.7
			l80.4,2.7l0,0l9.4,0.3l161.4,5.4l5.3,0.2l14,0.6l4.7-13.2l53.8-151.6l26.3-74.3l97-273.3l220.4-621.4l3.2-9L1095.4,258.5z
			 M952.4,193.2L567.1,1223.7l-50.4-72.5l99.9-267.3l0.5-1.2l220.5-588.9l-0.2-0.3l90.1-240.8l49.9,73.8L952.4,193.2z M719.4,136
			l107.4,158.8L611,871.8L503.3,707.7l155-410.6l0.2-0.5L719.4,136z M603.2,877.2l-447.1-15.1l-3.4-0.1l-0.1,0.2L39.7,700.5
			l455.7,12.4L603.2,877.2z M605.4,886.7l-98.5,263.4l-0.2,0.4l-445.7-15l98.1-263.9L605.4,886.7z M511.4,1160.2l46.8,67.3
			l-152.4-5.1l-300.3-10.7L59.7,1145L511.4,1160.2z M919.7,46.3l-88.8,237.5l-108-159.6v0c-0.3-0.4-0.6-0.8-1-1.1
			c-0.1-0.1-0.1-0.3-0.2-0.4c-1-1.5-2.6-2.4-4.4-2.4L437.9,113L468.4,31L919.7,46.3z M711.4,129.6l-61.9,164.2L494.8,703.4L40.3,691
			l220.6-573.2L711.4,129.6z M405.5,1231.8l159.4,5.4l71.8,103.2l30.7,44.1l-149.5-5l-5.9-8.4l-3,8.1l-83.2-2.8l-207.2-7.7
			l-102.4-147.3L405.5,1231.8z M679,1384.5l-23.7-34l-81.6-117.3l129.5-346.4L983.9,136l90.5,133.8L679,1384.5z"/>
	</g>
</g>
<g>
	<path d="M387.5,669.9c-1.3,0-2.5,0-3.8-0.1c-12.2-0.9-21.9-6.3-27.4-15.1c-5.5-8.8-6.1-19.9-1.7-31.3c4.3-11.2,13-21.3,24.5-28.5
		c23.8-15,52.4-12.6,63.7,5.3l0,0c5.5,8.8,6.1,19.9,1.7,31.3c-4.3,11.2-13,21.3-24.5,28.5C409.7,666.5,398.3,669.9,387.5,669.9z
		 M411.6,589.1c-9.8,0-20.5,3.1-30.4,9.3c-10.7,6.8-18.9,16.2-22.9,26.6c-3.9,10.2-3.5,20,1.4,27.7c4.8,7.7,13.5,12.4,24.4,13.2
		c11.1,0.8,23.1-2.4,33.9-9.2c10.7-6.8,18.9-16.2,22.9-26.6c3.9-10.2,3.5-20-1.4-27.7l0,0C433.8,593.6,423.4,589.1,411.6,589.1z"/>
</g>
<g>
	<ellipse transform="matrix(0.8462 -0.5329 0.5329 0.8462 -272.7896 309.9429)" cx="400.5" cy="627.5" rx="15.9" ry="11.8"/>
</g>
<g>
	<defs>
		<polygon id="SVGID_1_" points="266.9,129.3 440.3,133.7 428.8,177.6 255.4,173.2 		"/>
	</defs>
	<clipPath id="SVGID_2_">
		<use xlink:href="#SVGID_1_"  style="overflow:visible;"/>
	</clipPath>
	<g class="st0">
		<defs>
			<polygon id="SVGID_3_" points="266.9,129.3 440.3,133.7 428.8,177.6 255.4,173.2 			"/>
		</defs>
		<clipPath id="SVGID_4_">
			<use xlink:href="#SVGID_3_"  style="overflow:visible;"/>
		</clipPath>
		<g class="st1">
			<path d="M415.3,158.8c-0.7,2.5-0.7,4.4-0.2,5.6c0.5,1.2,1.5,1.9,2.8,1.9c1.3,0,2.6-0.5,3.7-1.7c1.2-1.2,2.1-3.1,2.8-5.7
				c0.6-2.5,0.7-4.3,0.2-5.5c-0.5-1.2-1.4-1.8-2.7-1.9c-1.3,0-2.6,0.5-3.8,1.7C416.9,154.4,416,156.3,415.3,158.8 M406.1,158.5
				c1.1-4.3,3.3-7.8,6.5-10.6c3.2-2.7,6.9-4,11.1-3.9c4.8,0.1,8,1.9,9.6,5.2c1.3,2.7,1.4,6,0.4,9.8c-1.1,4.3-3.3,7.9-6.4,10.6
				c-3.2,2.7-6.9,4-11.2,3.9c-3.8-0.1-6.7-1.3-8.4-3.7C405.4,166.9,404.9,163.2,406.1,158.5 M380.1,143.6l8.6,0.2l-1.2,4.6
				c1.8-1.9,3.4-3.2,4.9-3.9c1.5-0.8,3.2-1.1,5.1-1.1c2.5,0.1,4.3,1,5.3,2.8c1,1.8,1,4.6,0,8.3l-4.7,17.9l-9.2-0.2l4.1-15.5
				c0.5-1.8,0.5-3,0.2-3.8c-0.4-0.7-1-1.1-2-1.2c-1.1,0-2.1,0.4-3.1,1.4c-0.9,1-1.8,2.7-2.4,5.3l-3.5,13.5l-9.2-0.2L380.1,143.6z
				 M365.1,143.2l9.2,0.2l-7.4,28.2l-9.2-0.2L365.1,143.2z M367.9,132.5l9.2,0.2l-1.9,7.3l-9.2-0.2L367.9,132.5z M339.5,156.7
				c-0.6,2.4-0.7,4.2-0.2,5.3c0.5,1.1,1.3,1.7,2.5,1.7c1.1,0,2.2-0.5,3.2-1.5c1-1.1,1.9-2.9,2.5-5.4c0.6-2.2,0.7-3.9,0.2-5
				c-0.4-1.1-1.2-1.6-2.2-1.6c-1.2,0-2.4,0.5-3.5,1.6C340.9,152.8,340.1,154.5,339.5,156.7 M336.8,131.7l9.3,0.2l-3.5,13.4
				c1.2-1.1,2.5-1.9,3.8-2.5c1.3-0.5,2.7-0.8,4.1-0.7c2.9,0.1,5,1.4,6.3,3.9c1.3,2.5,1.3,6.1,0.1,10.7c-0.8,3.1-2,5.8-3.4,8.1
				c-1.5,2.3-3.2,4.1-5,5.2s-3.7,1.7-5.6,1.6c-1.6,0-3-0.5-4.1-1.3c-0.8-0.7-1.6-1.9-2.4-3.7l-1.1,4.2l-8.6-0.2L336.8,131.7z
				 M321,170.5l-8.6-0.2l1.2-4.5c-1.8,1.8-3.4,3.1-4.9,3.9c-1.5,0.8-3.2,1.1-5.1,1.1c-2.5-0.1-4.3-1-5.2-2.8c-1-1.8-1-4.6,0-8.3
				l4.7-18l9.2,0.2l-4.1,15.5c-0.5,1.8-0.5,3-0.2,3.8c0.4,0.8,1,1.1,2,1.2c1.1,0,2.1-0.4,3.1-1.4c1-1,1.8-2.8,2.4-5.3l3.6-13.6
				l9.2,0.2L321,170.5z M282.5,157.6c1.3-1.7,2.3-4.2,3.2-7.7c1-3.9,1.1-6.7,0.3-8.5c-0.8-1.7-2.3-2.6-4.5-2.6
				c-2-0.1-3.9,0.8-5.6,2.4c-1.7,1.7-3,4.3-4,8c-1.1,4.2-1.3,7.2-0.5,9c0.8,1.7,2.3,2.6,4.4,2.7c0.7,0,1.4,0,2-0.2
				c-0.6-1-1.7-1.9-3.4-2.9l2.7-4.3c0.9,0.2,1.5,0.5,1.9,0.8c0.4,0.3,1.2,1.1,2.4,2.3C281.9,157,282.2,157.3,282.5,157.6 M288.7,164
				c1,1.1,1.7,1.8,2,2c0.5,0.4,1.2,0.9,2,1.4l-4.6,6.7c-1.2-0.9-2.4-1.8-3.5-3c-1.1-1.2-1.9-2-2.3-2.6c-2.6,1.1-5.5,1.6-8.9,1.5
				c-5-0.1-8.6-1.8-10.7-4.9c-2.5-3.7-2.9-8.9-1.1-15.5c1.7-6.4,4.5-11.3,8.4-14.8c3.9-3.5,8.6-5.1,14-5c5.5,0.1,9.3,2,11.4,5.5
				c2.1,3.5,2.3,8.5,0.6,15C294.4,156,292,160.6,288.7,164"/>
		</g>
	</g>
</g>
</svg>
